<?xml version="1.0" encoding="UTF-8"?>
<svg id="Layer_1" data-name="Layer 1" xmlns="http://www.w3.org/2000/svg" xmlns:xlink="http://www.w3.org/1999/xlink" viewBox="0 0 800 800">
  <defs>
    <style>
      .cls-1 {
        fill: url(#linear-gradient-2);
      }

      .cls-2 {
        fill: url(#linear-gradient-4);
      }

      .cls-3 {
        fill: url(#linear-gradient-3);
      }

      .cls-4 {
        fill: url(#linear-gradient-5);
      }

      .cls-5 {
        fill: #000059;
      }

      .cls-6 {
        fill: url(#linear-gradient);
      }
    </style>
    <linearGradient id="linear-gradient" x1="420.3" y1="436.85" x2="420.3" y2="168.89" gradientUnits="userSpaceOnUse">
      <stop offset="0" stop-color="#09a8ff"/>
      <stop offset="1" stop-color="#000059"/>
    </linearGradient>
    <linearGradient id="linear-gradient-2" x1="470.61" x2="470.61" xlink:href="#linear-gradient"/>
    <linearGradient id="linear-gradient-3" x1="100.37" y1="602.23" x2="104.99" y2="602.23" gradientTransform="translate(-36903.78 6662.79) rotate(-90) scale(62.02)" xlink:href="#linear-gradient"/>
    <linearGradient id="linear-gradient-4" x1="608.54" y1="303.5" x2="236" y2="303.5" xlink:href="#linear-gradient"/>
    <linearGradient id="linear-gradient-5" x1="443.79" y1="441.32" x2="443.79" y2="165.69" xlink:href="#linear-gradient"/>
  </defs>
  <g>
    <path class="cls-5" d="M50,637.07c0-39.34,30.1-67.22,71.1-67.22,23.82,0,43.03,8.68,55.59,24.38l-23.27,21.05c-8.13-9.79-18.1-15.14-30.47-15.14-21.24,0-36.01,14.77-36.01,36.93s14.77,36.94,36.01,36.94c12.37,0,22.34-5.36,30.47-15.14l23.27,21.05c-12.56,15.7-31.76,24.37-55.59,24.37-41,0-71.1-27.89-71.1-67.22Z"/>
    <path class="cls-5" d="M186.31,637.07c0-39.34,30.1-67.22,71.1-67.22,23.82,0,43.03,8.68,55.59,24.38l-23.27,21.05c-8.13-9.79-18.1-15.14-30.47-15.14-21.24,0-36.01,14.77-36.01,36.93s14.77,36.94,36.01,36.94c12.37,0,22.34-5.36,30.47-15.14l23.27,21.05c-12.56,15.7-31.76,24.37-55.59,24.37-40.99,0-71.1-27.89-71.1-67.22Z"/>
    <path class="cls-5" d="M415.88,676.59h-54.66l-10.16,25.12h-37.3l57.06-129.27h36.01l57.25,129.27h-38.05l-10.16-25.12ZM405.17,649.63l-16.62-41.36-16.62,41.36h33.24Z"/>
    <path class="cls-5" d="M474.45,572.43h61.12c42.85,0,72.21,24.93,72.21,64.63s-29.36,64.64-72.21,64.64h-61.12v-129.27ZM534.1,672.52c21.97,0,36.75-13.11,36.75-35.46s-14.77-35.46-36.75-35.46h-23.08v70.91h23.08Z"/>
    <path class="cls-5" d="M750,666.25c0,22.34-18.47,35.46-53.18,35.46h-69.81v-129.27h66.12c33.98,0,50.6,13.85,50.6,33.79,0,12.37-6.28,22.35-17.36,28.07,14.59,5.17,23.64,16.25,23.64,31.95ZM663.2,598.84v24.93h25.12c12.19,0,18.47-4.25,18.47-12.56s-6.28-12.37-18.47-12.37h-25.12ZM713.07,662.18c0-8.87-6.65-13.11-19.21-13.11h-30.65v26.23h30.65c12.56,0,19.21-4.25,19.21-13.11Z"/>
  </g>
  <g>
    <path class="cls-6" d="M385.5,297.51c0,51.61,19.05,101.1,53.65,139.35l15.96-14.43c-31.01-34.28-48.09-78.65-48.09-124.92,0-42.31,13.81-82.17,39.95-115.29l-16.89-13.33c-29.16,36.96-44.58,81.44-44.58,128.62"/>
    <path class="cls-1" d="M443.95,182.22c26.14,33.13,39.96,73,39.96,115.29,0,46.27-17.08,90.63-48.1,124.92l15.96,14.43c34.6-38.24,53.65-87.73,53.65-139.35,0-47.18-15.41-91.66-44.57-128.62l-16.9,13.33Z"/>
    <rect class="cls-3" x="316.73" y="292.75" width="254.12" height="21.51"/>
    <path class="cls-2" d="M236,303.51c0,114.58,93.21,207.79,207.79,207.79,58.25,0,119.11-27.44,158.82-71.61l5.85-6.5-5.18-7.05c-37.15-50.62-96.76-80.85-159.49-80.85-35.49,0-70.3,9.51-100.66,27.51l10.97,18.51c27.05-16.03,58.07-24.51,89.7-24.51,52.92,0,103.36,24.15,136.68,65-35.7,35.95-87.25,57.98-136.68,57.98-102.71,0-186.28-83.56-186.28-186.27s83.57-186.28,186.28-186.28c51.86,0,101.38,21.68,136.77,59.81-33.21,40.84-82.57,64.09-136.77,64.09-31.63,0-62.65-8.48-89.7-24.51l-10.97,18.51c30.37,18,65.17,27.51,100.66,27.51,64.13,0,122.26-29.1,159.49-79.83l5.27-7.18-8.9-9.57c-39.46-44.71-96.27-70.35-155.86-70.35-114.58,0-207.79,93.22-207.79,207.8"/>
    <path class="cls-4" d="M327.48,303.51c0-64.13,52.17-116.31,116.3-116.31s116.3,52.18,116.3,116.31-52.17,116.3-116.3,116.3-116.3-52.17-116.3-116.3M305.97,303.51c0,75.99,61.82,137.81,137.81,137.81s137.82-61.83,137.82-137.81-61.83-137.82-137.82-137.82-137.81,61.83-137.81,137.82"/>
  </g>
</svg>