<?xml version="1.0" encoding="UTF-8"?>
<svg id="Layer_1" data-name="Layer 1" xmlns="http://www.w3.org/2000/svg" xmlns:xlink="http://www.w3.org/1999/xlink" viewBox="0 0 800 800">
  <defs>
    <style>
      .cls-1 {
        fill: url(#linear-gradient-2);
      }

      .cls-2 {
        fill: url(#linear-gradient-4);
      }

      .cls-3 {
        fill: url(#linear-gradient-3);
      }

      .cls-4 {
        fill: url(#linear-gradient-5);
      }

      .cls-5 {
        fill: url(#linear-gradient);
      }
    </style>
    <linearGradient id="linear-gradient" x1="396.69" y1="628.72" x2="396.69" y2="177.36" gradientUnits="userSpaceOnUse">
      <stop offset="0" stop-color="#09a8ff"/>
      <stop offset="1" stop-color="#000059"/>
    </linearGradient>
    <linearGradient id="linear-gradient-2" x1="481.43" x2="481.43" xlink:href="#linear-gradient"/>
    <linearGradient id="linear-gradient-3" x1="97.32" y1="602.11" x2="105.1" y2="602.11" gradientTransform="translate(-36903.78 6662.79) rotate(-90) scale(62.02)" xlink:href="#linear-gradient"/>
    <linearGradient id="linear-gradient-4" x1="713.75" y1="400" x2="86.25" y2="400" xlink:href="#linear-gradient"/>
    <linearGradient id="linear-gradient-5" x1="436.25" y1="632.14" x2="436.25" y2="167.86" xlink:href="#linear-gradient"/>
  </defs>
  <path class="cls-5" d="M338.06,394.01c0,86.93,32.09,170.29,90.37,234.71l26.88-24.31c-52.24-57.74-81.01-132.47-81.01-210.4,0-71.26,23.26-138.41,67.29-194.2l-28.44-22.45c-49.12,62.25-75.09,137.17-75.09,216.65"/>
  <path class="cls-1" d="M436.51,199.81c44.03,55.8,67.3,122.95,67.3,194.2,0,77.93-28.77,152.66-81.01,210.4l26.88,24.31c58.27-64.41,90.37-147.77,90.37-234.71,0-79.47-25.96-154.39-75.08-216.65l-28.46,22.45Z"/>
  <rect class="cls-3" x="222.23" y="381.89" width="428.03" height="36.23"/>
  <path class="cls-2" d="M86.25,400.01c0,192.99,157,349.99,349.99,349.99,98.11,0,200.62-46.22,267.51-120.61l9.85-10.95-8.72-11.88c-62.57-85.27-162.98-136.18-268.64-136.18-59.78,0-118.41,16.02-169.56,46.34l18.47,31.17c45.55-27,97.81-41.28,151.08-41.28,89.13,0,174.1,40.67,230.22,109.48-60.14,60.55-146.97,97.67-230.22,97.67-173,0-313.76-140.75-313.76-313.76S263.24,86.24,436.24,86.24c87.36,0,170.77,36.51,230.37,100.75-55.94,68.79-139.08,107.96-230.37,107.96-53.28,0-105.53-14.28-151.08-41.28l-18.47,31.17c51.15,30.32,109.78,46.34,169.56,46.34,108.02,0,205.93-49.01,268.64-134.46l8.87-12.09-14.99-16.12c-66.47-75.31-162.16-118.5-262.52-118.5-192.99,0-349.99,157.02-349.99,350.01"/>
  <path class="cls-4" d="M240.34,400.01c0-108.02,87.88-195.91,195.9-195.91s195.9,87.89,195.9,195.91-87.88,195.89-195.9,195.89-195.9-87.88-195.9-195.89M204.11,400.01c0,127.99,104.13,232.13,232.13,232.13s232.14-104.14,232.14-232.13-104.14-232.14-232.14-232.14-232.13,104.14-232.13,232.14"/>
</svg>