<svg width="150" height="50" viewBox="0 0 150 50" fill="none" xmlns="http://www.w3.org/2000/svg">
<path d="M57.6106 0.177246H66.2831V1.0622H62.4778V11.1064H61.4601V1.0622H57.6548V0.177246H57.6106Z" fill="white"/>
<path d="M67.3008 0.177246H68.3185V4.91175H74.8229V0.177246H75.8406V11.1064H74.8229V5.79671H68.3185V11.1064H67.3008V0.177246Z" fill="white"/>
<path d="M78.0971 0.177246H85.6192V1.0622H79.1148V5.00025H85.221V5.8852H79.1148V10.1772H85.7077V11.0622H78.0971V0.177246Z" fill="white"/>
<path d="M57.6106 38.1865H64.5575V39.0715H58.6725V43.0095H63.8937V43.8945H58.6725V49.1157H57.6548V38.1865H57.6106Z" fill="white"/>
<path d="M70.3984 37.9651C73.8055 37.9651 75.5311 40.6642 75.5311 43.673C75.5311 46.6819 73.8055 49.381 70.3984 49.381C66.9471 49.381 65.2657 46.6819 65.2657 43.673C65.2657 40.6642 66.9913 37.9651 70.3984 37.9651ZM70.3984 48.4518C73.2745 48.4518 74.5134 46.0182 74.5134 43.6288C74.5134 41.2394 73.2745 38.8058 70.3984 38.8058C67.5223 38.8058 66.2834 41.2394 66.2834 43.6288C66.2834 46.0624 67.5223 48.4518 70.3984 48.4518Z" fill="white"/>
<path d="M77.0795 38.1865H78.0972V44.9564C78.0972 47.4785 79.2919 48.452 81.283 48.452C83.3184 48.452 84.5131 47.4785 84.5131 44.9564V38.1865H85.575V45.1777C85.575 47.4343 84.3803 49.3369 81.3273 49.3369C78.3184 49.3369 77.0795 47.4343 77.0795 45.1777V38.1865Z" fill="white"/>
<path d="M87.6548 38.1865H88.8053L95.1769 47.4343H95.2212V38.1865H96.2831V49.1157H95.1327L88.761 39.8679H88.7168V49.1157H87.6548V38.1865Z" fill="white"/>
<path d="M98.4068 38.1865H102.168C105.486 38.275 107.168 40.0449 107.168 43.629C107.168 47.2573 105.442 49.0272 102.168 49.0715H98.4068V38.1865ZM99.4688 48.2308H101.681C104.823 48.2308 106.194 46.9476 106.194 43.6732C106.194 40.3989 104.823 39.1157 101.681 39.1157H99.4688V48.2308Z" fill="white"/>
<path d="M112.08 38.1865H113.23L117.522 49.1157H116.416L115.089 45.7086H110.133L108.806 49.1157H107.699L112.08 38.1865ZM110.443 44.8237H114.735L112.611 39.2485L110.443 44.8237Z" fill="white"/>
<path d="M116.327 38.1865H125V39.0715H121.195V49.1157H120.133V39.0715H116.327V38.1865Z" fill="white"/>
<path d="M126.062 38.1865H127.124V49.1157H126.062V38.1865Z" fill="white"/>
<path d="M133.938 37.9651C137.345 37.9651 139.071 40.6642 139.071 43.673C139.071 46.6819 137.345 49.381 133.938 49.381C130.486 49.381 128.805 46.6819 128.805 43.673C128.805 40.6642 130.531 37.9651 133.938 37.9651ZM133.938 48.4518C136.814 48.4518 138.053 46.0182 138.053 43.6288C138.053 41.2394 136.814 38.8058 133.938 38.8058C131.062 38.8058 129.823 41.2394 129.823 43.6288C129.867 46.0624 131.062 48.4518 133.938 48.4518Z" fill="white"/>
<path d="M140.708 38.1865H141.859L148.23 47.4343H148.275V38.1865H149.336V49.1157H148.186L141.814 39.8679H141.77V49.1157H140.708V38.1865Z" fill="white"/>
<path d="M57.6106 14.3362H63.6283V28.8494H72.2566V33.8494H57.6106V14.3362Z" fill="white"/>
<path d="M76.2389 14.3362H82.2566V33.8494H76.2389V14.3362Z" fill="white"/>
<path d="M86.7256 14.3362H92.876L98.584 24.7786H98.6282V14.3362H104.336V33.8494H98.4955L92.4778 23.23H92.4335V33.8937H86.7256V14.3362Z" fill="white"/>
<path d="M126.593 26.3273C126.593 31.7698 123.717 34.3361 117.699 34.3361C111.682 34.3361 108.761 31.7698 108.761 26.3273V14.3362H114.779V24.9999C114.779 26.991 114.735 29.4689 117.699 29.4689C120.531 29.4689 120.531 26.9468 120.531 24.9999V14.3362H126.549V26.3273H126.593Z" fill="white"/>
<path d="M136.151 23.4955L129.735 14.3362H136.814L139.779 19.6459L142.699 14.3362H149.381L143.098 23.5397L150 33.8937H142.744L139.425 28.053L135.974 33.8937H129.071L136.151 23.4955Z" fill="white"/>
<path d="M9.82299 39.292V19.646H0V49.115H29.469V39.292H9.82299Z" fill="white"/>
<path d="M49.115 0H0V14.7345H9.82299V9.86724H39.292V39.292H34.3805V49.115H49.115V0Z" fill="white"/>
</svg>
